<?xml version="1.0" encoding="UTF-8"?>
<!DOCTYPE svg PUBLIC "-//W3C//DTD SVG 1.1//EN" "http://www.w3.org/Graphics/SVG/1.1/DTD/svg11.dtd">
<!-- Creator: CorelDRAW X7 -->
<svg xmlns="http://www.w3.org/2000/svg" xml:space="preserve" width="42.3332mm" height="42.3332mm" version="1.1" style="shape-rendering:geometricPrecision; text-rendering:geometricPrecision; image-rendering:optimizeQuality; fill-rule:evenodd; clip-rule:evenodd"
viewBox="0 0 4233 4233"
 xmlns:xlink="http://www.w3.org/1999/xlink">
 <defs>
  <style type="text/css">
   <![CDATA[
    .str1 {stroke:#ED3237;stroke-width:250}
    .str0 {stroke:black;stroke-width:250}
    .str2 {stroke:#151515;stroke-width:250}
    .fil0 {fill:none}
   ]]>
  </style>
 </defs>
 <g id="Capa_x0020_1">
  <metadata id="CorelCorpID_0Corel-Layer"/>
  <path class="fil0 str0" d="M12575 3312c-788,-96 -1192,640 -905,1208 109,214 371,434 704,445 415,13 517,-108 702,-299 5,183 -47,266 -128,390 -75,114 -295,290 -304,380 119,41 1156,31 1238,-8 -35,-121 -476,-517 -475,-802 127,97 266,367 749,338 325,-20 571,-234 681,-445 328,-634 -206,-1297 -905,-1207 152,-305 242,-550 48,-905 -306,-560 -1129,-580 -1456,-5 -211,373 -72,637 51,910z"/>
  <path class="fil0 str1" d="M14175 -1756l-24 -26c-70,-93 -40,-92 -156,-211 -74,-76 -124,-120 -244,-173 -235,-103 -510,-82 -712,32 -362,204 -507,735 -334,1235 135,393 445,766 675,1015 84,92 742,866 795,921l794 -921c213,-261 553,-628 680,-1038 292,-943 -399,-1545 -1040,-1259 -244,109 -289,209 -434,425z"/>
  <path class="fil0 str2" d="M1926 3035c3,172 -86,270 -166,383 -184,261 -260,216 -270,325 312,33 903,24 1245,13 -42,-198 -335,-143 -384,-689 1001,711 1628,-451 1261,-1080 -124,-212 -360,-396 -542,-561l-756 -763c-81,-72 -133,-130 -196,-196 -59,55 -120,115 -182,186l-1125 1105c-68,64 -127,104 -185,207 -231,416 -72,858 207,1086 129,106 342,202 575,194 258,-9 376,-121 518,-210z"/>
  <path class="fil0 str1" d="M7767 3953c75,89 237,276 368,429 130,151 245,278 369,439l696 926c58,-69 82,-95 174,-222 65,-93 103,-142 165,-228 115,-161 232,-318 346,-462 115,-145 228,-294 355,-430l390 -427c-51,-70 -290,-340 -375,-442 -123,-145 -237,-286 -362,-448l-693 -942 -1054 1366c-106,122 -294,314 -379,441z"/>
 </g>
</svg>
