<?xml version="1.0" encoding="UTF-8"?>
<!DOCTYPE svg PUBLIC "-//W3C//DTD SVG 1.1//EN" "http://www.w3.org/Graphics/SVG/1.1/DTD/svg11.dtd">
<!-- Creator: CorelDRAW X7 -->
<svg xmlns="http://www.w3.org/2000/svg" xml:space="preserve" width="42.3332mm" height="42.3332mm" version="1.1" style="shape-rendering:geometricPrecision; text-rendering:geometricPrecision; image-rendering:optimizeQuality; fill-rule:evenodd; clip-rule:evenodd"
viewBox="0 0 4233 4233"
 xmlns:xlink="http://www.w3.org/1999/xlink">
 <defs>
  <style type="text/css">
   <![CDATA[
    .str1 {stroke:#ED3237;stroke-width:250}
    .str0 {stroke:black;stroke-width:250}
    .str3 {stroke:#B71C1C;stroke-width:250}
    .str2 {stroke:#DEDEDE;stroke-width:250}
    .fil0 {fill:none}
   ]]>
  </style>
 </defs>
 <g id="Capa_x0020_1">
  <metadata id="CorelCorpID_0Corel-Layer"/>
  <path class="fil0 str0" d="M12575 3312c-788,-96 -1192,640 -905,1208 109,214 371,434 704,445 415,13 517,-108 702,-299 5,183 -47,266 -128,390 -75,114 -295,290 -304,380 119,41 1156,31 1238,-8 -35,-121 -476,-517 -475,-802 127,97 266,367 749,338 325,-20 571,-234 681,-445 328,-634 -206,-1297 -905,-1207 152,-305 242,-550 48,-905 -306,-560 -1129,-580 -1456,-5 -211,373 -72,637 51,910z"/>
  <path class="fil0 str1" d="M14175 -1756l-24 -26c-70,-93 -40,-92 -156,-211 -74,-76 -124,-120 -244,-173 -235,-103 -510,-82 -712,32 -362,204 -507,735 -334,1235 135,393 445,766 675,1015 84,92 742,866 795,921l794 -921c213,-261 553,-628 680,-1038 292,-943 -399,-1545 -1040,-1259 -244,109 -289,209 -434,425z"/>
  <path class="fil0 str2" d="M7621 823c4,171 -85,269 -165,382 -184,261 -260,217 -270,326 312,32 902,24 1245,12 -42,-197 -335,-143 -384,-688 1001,711 1628,-452 1261,-1080 -124,-213 -360,-396 -542,-561l-756 -763c-81,-72 -133,-130 -196,-196 -60,55 -121,115 -183,186l-1124 1104c-69,65 -127,104 -185,208 -231,415 -72,857 207,1085 129,107 342,203 575,195 258,-9 376,-121 517,-210z"/>
  <path class="fil0 str3" d="M685 2124c75,89 237,275 368,428 130,151 245,278 369,439l696 926c58,-69 83,-95 175,-222 64,-92 102,-141 164,-228 115,-160 233,-318 347,-462 115,-144 227,-294 354,-429l390 -428c-51,-69 -290,-340 -375,-441 -123,-146 -236,-287 -361,-449l-694 -942 -1053 1367c-107,121 -295,313 -380,441z"/>
 </g>
</svg>
