<?xml version="1.0" encoding="UTF-8"?>
<!DOCTYPE svg PUBLIC "-//W3C//DTD SVG 1.1//EN" "http://www.w3.org/Graphics/SVG/1.1/DTD/svg11.dtd">
<!-- Creator: CorelDRAW X7 -->
<svg xmlns="http://www.w3.org/2000/svg" xml:space="preserve" width="42.3332mm" height="42.3332mm" version="1.1" style="shape-rendering:geometricPrecision; text-rendering:geometricPrecision; image-rendering:optimizeQuality; fill-rule:evenodd; clip-rule:evenodd"
viewBox="0 0 4233 4233"
 xmlns:xlink="http://www.w3.org/1999/xlink">
 <defs>
  <style type="text/css">
   <![CDATA[
    .str0 {stroke:black;stroke-width:250}
    .str1 {stroke:#B71C1C;stroke-width:250}
    .str2 {stroke:#DEDEDE;stroke-width:250}
    .str3 {stroke:#DEDEDE;stroke-width:250}
    .fil0 {fill:none}
   ]]>
  </style>
 </defs>
 <g id="Capa_x0020_1">
  <metadata id="CorelCorpID_0Corel-Layer"/>
  <path class="fil0 str0" d="M12575 3312c-788,-96 -1192,640 -905,1208 109,214 371,434 704,445 415,13 517,-108 702,-299 5,183 -47,266 -128,390 -75,114 -295,290 -304,380 119,41 1156,31 1238,-8 -35,-121 -476,-517 -475,-802 127,97 266,367 749,338 325,-20 571,-234 681,-445 328,-634 -206,-1297 -905,-1207 152,-305 242,-550 48,-905 -306,-560 -1129,-580 -1456,-5 -211,373 -72,637 51,910z"/>
  <path class="fil0 str1" d="M2117 968l-24 -26c-70,-93 -40,-92 -157,-211 -74,-76 -123,-120 -243,-173 -236,-103 -510,-82 -713,33 -362,203 -506,734 -334,1234 136,393 446,767 675,1016 84,91 743,865 796,921l794 -922c213,-260 553,-627 680,-1038 292,-943 -399,-1545 -1040,-1259 -244,109 -290,209 -434,425z"/>
  <path class="fil0 str2" d="M7621 823c4,171 -85,269 -165,382 -184,261 -260,217 -270,326 312,32 902,24 1245,12 -42,-197 -335,-143 -384,-688 1001,711 1628,-452 1261,-1080 -124,-213 -360,-396 -542,-561l-756 -763c-81,-72 -133,-130 -196,-196 -60,55 -121,115 -183,186l-1124 1104c-69,65 -127,104 -185,208 -231,415 -72,857 207,1085 129,107 342,203 575,195 258,-9 376,-121 517,-210z"/>
  <path class="fil0 str3" d="M9205 -3803c75,89 237,276 368,428 130,152 245,279 369,439l696 927c58,-70 82,-95 174,-223 65,-92 102,-141 164,-227 116,-161 233,-319 347,-462 115,-145 228,-294 355,-430l390 -427c-52,-70 -290,-341 -375,-442 -123,-145 -237,-287 -362,-448l-693 -943 -1054 1367c-106,122 -294,313 -379,441z"/>
 </g>
</svg>
