<?xml version="1.0" encoding="UTF-8"?>
<!DOCTYPE svg PUBLIC "-//W3C//DTD SVG 1.1//EN" "http://www.w3.org/Graphics/SVG/1.1/DTD/svg11.dtd">
<!-- Creator: CorelDRAW X7 -->
<svg xmlns="http://www.w3.org/2000/svg" xml:space="preserve" width="42.3332mm" height="42.3332mm" version="1.1" style="shape-rendering:geometricPrecision; text-rendering:geometricPrecision; image-rendering:optimizeQuality; fill-rule:evenodd; clip-rule:evenodd"
viewBox="0 0 4233 4233"
 xmlns:xlink="http://www.w3.org/1999/xlink">
 <defs>
  <style type="text/css">
   <![CDATA[
    .str1 {stroke:#DEDEDE;stroke-width:250}
    .str0 {stroke:#DEDEDE;stroke-width:250}
    .fil0 {fill:none}
   ]]>
  </style>
 </defs>
 <g id="Capa_x0020_1">
  <metadata id="CorelCorpID_0Corel-Layer"/>
  <path class="fil0 str0" d="M1435 1708c-788,-97 -1193,640 -905,1208 109,214 371,434 704,444 415,13 517,-107 702,-298 5,183 -47,266 -128,390 -75,114 -295,290 -304,380 119,41 1156,31 1238,-8 -35,-121 -476,-517 -475,-802 127,97 266,367 749,338 325,-20 571,-235 680,-446 329,-633 -205,-1296 -904,-1206 152,-306 242,-551 48,-905 -306,-560 -1129,-580 -1456,-5 -211,372 -72,637 51,910z"/>
  <path class="fil0 str0" d="M13883 -3198l-23 -25c-71,-93 -40,-92 -157,-211 -74,-76 -124,-121 -244,-173 -235,-104 -510,-82 -712,32 -362,204 -507,734 -334,1235 135,393 445,766 675,1015 84,91 742,866 795,921l794 -922c213,-260 553,-627 680,-1037 292,-943 -399,-1545 -1039,-1259 -244,109 -290,209 -435,424z"/>
  <path class="fil0 str1" d="M7621 823c4,171 -85,269 -165,382 -184,261 -260,217 -270,326 312,32 902,24 1245,12 -42,-197 -335,-143 -384,-688 1001,711 1628,-452 1261,-1080 -124,-213 -360,-396 -542,-561l-756 -763c-81,-72 -133,-130 -196,-196 -60,55 -121,115 -183,186l-1124 1104c-69,65 -127,104 -185,208 -231,415 -72,857 207,1085 129,107 342,203 575,195 258,-9 376,-121 517,-210z"/>
  <path class="fil0 str0" d="M9205 -3803c75,89 237,276 368,428 130,152 245,279 369,439l696 927c58,-70 82,-95 174,-223 65,-92 102,-141 164,-227 116,-161 233,-319 347,-462 115,-145 228,-294 355,-430l390 -427c-52,-70 -290,-341 -375,-442 -123,-145 -237,-287 -362,-448l-693 -943 -1054 1367c-106,122 -294,313 -379,441z"/>
 </g>
</svg>
